<?xml version="1.0" encoding="utf-8"?>
<!-- Generator: Adobe Illustrator 19.1.0, SVG Export Plug-In . SVG Version: 6.00 Build 0)  -->
<svg version="1.1" id="Layer_2" xmlns="http://www.w3.org/2000/svg" xmlns:xlink="http://www.w3.org/1999/xlink" x="0px" y="0px"
	 viewBox="0 0 481 176" style="enable-background:new 0 0 481 176;" xml:space="preserve">
<style type="text/css">
	.st0{fill:#4C4C4C;}
</style>
<g>
	<path class="st0" d="M240.5,1.5c65.4,1.9,118.9,9.2,159,21.9c30,9.5,52.2,21.8,66,36.5c14,14.9,14,27.2,14,28
		c-2.6,19.5-16.7,36.1-41.8,49.5c-20.3,10.8-47.8,19.5-81.7,25.9c-57.8,10.9-115,11.1-115.5,11.1c-66.3-2-120.3-9.6-160.5-22.4
		c-30-9.6-52-21.9-65.4-36.6C0.9,100.4,1.5,88.2,1.5,88.1c2.2-19.3,16.1-35.8,41.2-49.2C62.9,28.1,90.4,19.4,124.4,13
		C182.1,2.1,239.2,1.5,240.5,1.5 M240.5,0.5c0,0-230,1.4-240,87.5c0,0-5.5,79.9,240,87.5c0,0,228.5-0.6,240-87.5
		C480.5,88,484,7.4,240.5,0.5L240.5,0.5z"/>
</g>
</svg>
