<?xml version="1.0" encoding="utf-8"?>
<!-- Generator: Adobe Illustrator 19.1.0, SVG Export Plug-In . SVG Version: 6.00 Build 0)  -->
<svg version="1.1" id="Layer_2" xmlns="http://www.w3.org/2000/svg" xmlns:xlink="http://www.w3.org/1999/xlink" x="0px" y="0px"
	 viewBox="0 0 481 176" style="enable-background:new 0 0 481 176;" xml:space="preserve">
<style type="text/css">
	.st0{fill:#4C4C4C;}
</style>
<g>
	<path class="st0" d="M240.5,1c64.1,0,124.4,9.1,169.7,25.7c22,8,39.2,17.4,51.2,27.8C473.8,65.2,480,76.4,480,88
		s-6.2,22.8-18.6,33.5c-12,10.4-29.3,19.7-51.2,27.8C364.9,165.9,304.6,175,240.5,175s-124.4-9.1-169.7-25.7
		c-22-8-39.2-17.4-51.2-27.8C7.2,110.8,1,99.6,1,88s6.2-22.8,18.6-33.5c12-10.4,29.3-19.7,51.2-27.8C116.1,10.1,176.4,1,240.5,1
		 M240.5,0C107.7,0,0,39.4,0,88s107.7,88,240.5,88S481,136.6,481,88S373.3,0,240.5,0L240.5,0z"/>
</g>
</svg>
